<svg id="Component_16_1" data-name="Component 16 – 1" xmlns="http://www.w3.org/2000/svg" width="36.004" height="50.689" viewBox="0 0 36.004 50.689">
  <path id="Path_78" data-name="Path 78" d="M395.111,12.705A51.5,51.5,0,0,0,392.5,7.611a3.167,3.167,0,0,0-.516-.885c-1.06-.992-2.093-1.971-3.153-2.976a16.842,16.842,0,0,0-2.066-1.743,5.337,5.337,0,0,0-1.808-.8,1.571,1.571,0,0,1-.435-.094l-.571-.174c-.367-.147-.734-.268-1.114-.389a15.769,15.769,0,0,0-1.767-.536,17.118,17.118,0,0,0-2.487-.215,26.163,26.163,0,0,0-4.227,0,9.473,9.473,0,0,0-3.1.871,14.315,14.315,0,0,1-1.359.7,10.007,10.007,0,0,0-1.481.59c-1.21.67-2.555,1.193-3.153,2.681,0,.067-.163.094-.231.147a14.258,14.258,0,0,0-3.438,3.7,15.007,15.007,0,0,0-1.93,8.822c.136,1.689.231,3.392.5,5.081.163.992.217,2.011.408,2.99.394,2,.856,4.022,1.278,5.966s.911,4.357,1.359,6.529c.408,1.837.843,3.687,1.359,5.51.557,2.185,1.169,4.357,1.74,6.543.122.483.353.523.815.442a4.872,4.872,0,0,0,2.609-1.662c2.2-2.1,4.471-4.129,6.8-6.181l1.359-1.341a.548.548,0,0,1,.759-.123.539.539,0,0,1,.125.123c1.821,1.569,3.656,3.11,5.436,4.692,1.169,1.019,2.27,2.1,3.438,3.124.163.148.5.107.761.094a.755.755,0,0,0,.082-.523,5.3,5.3,0,0,1-.625-2.99,5.493,5.493,0,0,1,.163-1.488c.163-.563.34-1.126.5-1.7a21.057,21.057,0,0,0,.639-2.185c.245-1.421.367-2.883.612-4.3.122-.778.421-1.515.53-2.293.2-1.421.3-2.842.516-4.25.272-1.8.639-3.58.924-5.363a23.163,23.163,0,0,1,.272-2.588,10.852,10.852,0,0,0,.448-4.371,1.668,1.668,0,0,1,0-.818,5.784,5.784,0,0,0,0-3.62,18.045,18.045,0,0,1,0-2.574.64.64,0,0,1,.109-.241c.068,0,.19,0,.2.121.449,1.461.938,2.923,1.359,4.411a10.83,10.83,0,0,1,0,1.756,35.724,35.724,0,0,1-.68,8.755c-.625,3.808-1.264,7.615-1.971,11.409-.557,3.043-1.209,6.06-1.808,9.1-.136.67-.272,1.341-.394,2.011-.068.335-.122.684-.19,1.032s0,.335-.068.509a1.643,1.643,0,0,0-.136.389.347.347,0,0,0,.149.308h.326a.578.578,0,0,0,.3,0,.377.377,0,0,0,.177-.2,4.762,4.762,0,0,0,.15-.469l.2-.55a10.276,10.276,0,0,0,.285-1.113c.3-1.649.476-3.3.8-4.934.421-2.092.965-4.17,1.427-6.261.231-1.086.462-2.185.68-3.285a26.478,26.478,0,0,0,.353-2.963A42.418,42.418,0,0,1,395,23.86a29.106,29.106,0,0,0,.544-7.83A10.481,10.481,0,0,0,395.111,12.705ZM387.962,4.1a15.515,15.515,0,0,1,1.359.925c.122.094.163.295.245.456a1.913,1.913,0,0,1-.544.08c-.87-.121-.87-.134-.87.7.054,1.421.054,2.856.054,4.2a2.067,2.067,0,0,1-.2.55,1.332,1.332,0,0,1-.218-.51V5.533c0-.389-.15-.778-.177-1.18C387.609,4.3,387.922,4.071,387.962,4.1Zm-.149,7.843a.946.946,0,0,1,.149-.282.559.559,0,0,1,.136.2l.448,2.252h-.231c0,2.212-.109,4.438-.19,6.7,0,1.073-.068,2.145-.081,3.218,0,.067,0,.147-.082.174a.109.109,0,0,1-.143-.057.1.1,0,0,1-.007-.023.5.5,0,0,1,0-.2c0-.442-.122-.925-.136-1.341,0-1.716-.136-3.419-.109-5.135S387.718,13.765,387.813,11.941ZM380.8,1.511V1.377a.151.151,0,0,1,.19,0,.333.333,0,0,1,.068.174,20.879,20.879,0,0,1,.15,4.88.478.478,0,0,1-.082.308.192.192,0,0,1-.269.017l-.017-.017C380.814,4.97,380.732,3.24,380.8,1.511Zm.177,5.98c.081.107.231.215.245.335.068.59.082,1.166.122,1.756h-.082c0,.737.136,1.475.149,2.212,0,.188-.19.389-.285.577-.122-.188-.34-.362-.353-.55,0-1.22,0-2.44-.081-3.66V7.892A2.9,2.9,0,0,1,380.977,7.49Zm-1.2-.724c.081.121.245.241.245.362V8.7h0v1.341c0,.121-.136.241-.217.362-.082-.121-.245-.241-.245-.362V7.088C379.482,7.021,379.672,6.887,379.781,6.766Zm-1.468-.912V4.38a2.66,2.66,0,0,1,.245-.63,2.167,2.167,0,0,1,.218.63v2.95h0V9.448a2.765,2.765,0,0,1-.258.778,2.37,2.37,0,0,1-.353-.818C378.177,8.187,378.272,7.021,378.313,5.854Zm-1.536,2.065V3.213a.758.758,0,0,1,.068-.362,2.418,2.418,0,0,1,.367-.375,1.663,1.663,0,0,1,.163.4,21.932,21.932,0,0,1,.149,2.681c0,1.341-.177,2.762-.313,4.143a2.333,2.333,0,0,1-.313.644,2.4,2.4,0,0,1-.34-.737V7.933ZM375.636.787c.326,0,.354.375.34.657l-.1,1.488a.61.61,0,0,1-.081.349.22.22,0,0,1-.307.019l-.019-.019-.163-1.14a5.106,5.106,0,0,1-.163-1.073C375.16.84,375.4.746,375.636.787Zm.34,4.612c-.122.925-.245,1.877-.367,2.829a1.064,1.064,0,0,1-.149.308c0-.107-.136-.215-.122-.322,0-1.18.122-2.346.2-3.526a1.011,1.011,0,0,1,.177-.416c0,.147.122.295.163.442S375.894,5.09,375.975,5.4Zm-2.161-2.681a.325.325,0,0,1,.285-.255.234.234,0,0,1,.136,0,.507.507,0,0,1,.2.429v.885c0,.282-.136.684-.163,1.032s0,.885,0,1.341c-.109,0-.136-.2-.15-.322C374,4.916,373.9,4,373.787,3.146a1.056,1.056,0,0,1-.014-.362Zm.8,8.219c0,.161,0,.389-.231.375,0-1.448-.2-2.963-.1-4.4C374.616,6.94,374.535,10.453,374.616,10.936Zm-2.365-1.6c0-.308.3-.59.449-.885.122.268.272.536.38.818a1.057,1.057,0,0,1,0,.362H373a19.542,19.542,0,0,1,0,2c0,.215-.326.4-.489.6a2.194,2.194,0,0,1-.258-.7A14.48,14.48,0,0,1,372.251,9.34Zm.911,9.291v2.011c0,.107-.19.2-.3.295-.068-.121-.19-.241-.2-.362V19.556h0V18.31C372.9,18.417,373.148,18.5,373.162,18.631Zm-1.753-16.8a.316.316,0,0,1,.442.005.306.306,0,0,1,.047.062.581.581,0,0,1,0,.215V3.535c0,.094,0,.228-.122.255a.164.164,0,0,1-.258-.04.305.305,0,0,1,0-.188c0-.456-.136-.912-.177-1.341C371.286,2.007,371.273,1.913,371.409,1.832Zm-.082,8.808s.068-.094.1-.134a.438.438,0,0,1,.1.215,8.585,8.585,0,0,0,.122.992h-.122c.082.644.19,1.341.217,1.944,0,.188-.177.389-.285.59a2.051,2.051,0,0,1-.258-.59,9.627,9.627,0,0,1-.1-1.528A14.333,14.333,0,0,1,371.327,10.641Zm-2.718,2.681c.1.134.258.268.285.416a4.241,4.241,0,0,1,0,.831h0V16.7a1.209,1.209,0,0,1-.15.4c-.122-.107-.34-.215-.367-.335,0-.63-.109-1.341-.122-1.9a6.063,6.063,0,0,1,.122-1.113,1.338,1.338,0,0,1,.245-.4Zm-6.225-3.794c0-.121.272-.174.421-.268s.177.215.163.295a15.245,15.245,0,0,1-.38,1.555c0,.134-.258.215-.394.308a2.47,2.47,0,0,0-.136-.295C362.235,10.453,362.3,10,362.385,9.528Zm-.448,3.124a1.85,1.85,0,0,1,.258-.308,1.314,1.314,0,0,1,0,.322,1.173,1.173,0,0,1,0,.375h.19c-.082.349-.163.711-.258,1.059h-.217V12.92A.556.556,0,0,1,361.936,12.652Zm-.911,5.108v3.767a1.456,1.456,0,0,1-.163.416,1.842,1.842,0,0,1-.177-.375,31.222,31.222,0,0,0-.122-3.379c0-.7-.122-1.341-.177-2.1a1.243,1.243,0,0,1,0-.55,4.737,4.737,0,0,1,.367-.684,2,2,0,0,1,.272.7,20.059,20.059,0,0,1-.082,2.212Zm.679,5.7c0-1.126,0-2.266-.081-3.405,0-.711,0-1.421-.068-2.118a1.323,1.323,0,0,1,.068-.63,8.86,8.86,0,0,1,.761-.965c0,.335.1.684.122,1.032s0,.55,0,.831h-.231v5.242a2.046,2.046,0,0,1-.19.577c-.136-.161-.381-.375-.394-.563Zm.258,1.5c1.006,0,.761-.791.965-1.341a2.84,2.84,0,0,1,.149-.282.506.506,0,0,1,.109.228,7.053,7.053,0,0,0,.109,1.461c-.177.121.245.992-.625.483a2.334,2.334,0,0,1-.313.147l-.394.107Zm1.359,6.516c0,.094-.136.188-.2.268s-.2-.134-.245-.241a9.189,9.189,0,0,1-.489-.939c0-.161-.068-.456,0-.483a2.749,2.749,0,0,1,.856-.215s.122.308.109.268c-.054.55-.054.952-.1,1.341Zm1.237,6.6c-.163-.2-.421-.389-.435-.6-.1-1.006-.136-2.024-.163-3.03V30c0-.644-.217-1.341-.217-1.931,0-.938,0-1.89.082-2.829s.136-2.078.136-3.11c0-1.783,0-3.566-.082-5.363V10.024a21.182,21.182,0,0,1,.014-2.252,1.588,1.588,0,0,1,.285-.59.342.342,0,0,1,.3-.134s.149.188.149.282v.939h-.136v9.707c0,1.341-.19,2.775-.217,4.156,0,.952.109,1.9.149,2.856.1,2.185.177,4.384.245,6.569,0,1.166,0,2.346.1,3.513a24.106,24.106,0,0,1,0,2.427c.068.174-.163.375-.272.576Zm1.9,7.669a2.879,2.879,0,0,1-.231-.563c-.326-1.542-.748-3.07-.924-4.625a34.91,34.91,0,0,1,0-3.767c0-2.319-.1-4.652-.149-6.985V28.043h.177c-.082-2.1-.231-4.183-.367-6.288,0-.818.177-1.649.19-2.48v-9a4.348,4.348,0,0,1,.231-.791,3.46,3.46,0,0,0,.149-.818c0-.871-.122-1.756-.122-2.681,0-.215.245-.429.381-.644.1.228.326.469.285.684a41.1,41.1,0,0,0,.163,7.2c0,1.233-.1,2.467-.109,3.714v9.385c0,3.057,0,6.114.136,9.17s.258,6.355.394,9.532A2.19,2.19,0,0,1,366.462,45.74Zm6.483-23.033a5.075,5.075,0,0,1,.258.965c.1,1.341.218,7.267.3,8.648a1.586,1.586,0,0,0,.163.389c.109-.107.326-.215.326-.335V25.187c0-1.636-.068-3.271-.081-4.92,0-.121.122-.241.19-.362s.313.107.367.215a1.86,1.86,0,0,1,.244.791c.068,1.528.082,3.07.122,4.612,0,1.341.136,2.547.177,3.808v1.743a1.331,1.331,0,0,0,.2.536c.082-.174.245-.349.245-.523.082-1.609,0-3.218.19-4.827a20.067,20.067,0,0,0-.245-4.947,1.025,1.025,0,0,1,.313-.831c.394-.255.734-.094.72.442,0,1.14-.109,2.279-.109,3.419s.149,2.212.163,3.325,0,2.212,0,3.312a3.634,3.634,0,0,0,0,1.019,16.417,16.417,0,0,1-.177,6.462,2.75,2.75,0,0,1,0,.818,1.853,1.853,0,0,1-.313.576c-.122-.147-.3-.282-.34-.456a6.841,6.841,0,0,1-.15-2.681,10.063,10.063,0,0,0-.122-2.293c0-.094-.122-.174-.19-.255s-.19.174-.2.282a3.552,3.552,0,0,1-.082.925c-.081,1.207-.177,2.427-.231,3.633,0,.577-.231,1.18.353,1.649.082,0,0,.469-.177.617a4.085,4.085,0,0,1-.734.483c-.109-.215-.3-.429-.3-.644V35.1c0-.134-.136-.255-.2-.389a1.845,1.845,0,0,0-.163.429c-.163,1.85-.353,3.7-.448,5.55a9.85,9.85,0,0,0,.285,1.85.743.743,0,0,1-.136.483c-.081.094-.353.188-.394.134a.849.849,0,0,1-.136-.523c-.109-1.77-.19-3.553-.3-5.363a1.9,1.9,0,0,0-.231-.576c-.081.174-.231.349-.231.523-.1,2-.177,4.022-.258,5.98a9.707,9.707,0,0,1-.109,1.1c0,.094-.149.174-.231.241a.906.906,0,0,1-.122-.295c0-1.073.082-2.145.082-3.218a21.165,21.165,0,0,0-.163-2.279c0-.134-.19-.268-.3-.4,0,.134-.163.255-.163.375q-.068,2.574-.2,5.256c0,.282-.1.63,0,.818.625.912-.177,1.26-.625,1.756a.63.63,0,0,1-.34.107.794.794,0,0,1-.081-.241,8.611,8.611,0,0,1-.082-1.341c0-.7.136-1.341.149-2.092s-.122-1.046-.122-1.569V34.063c0-.952-.1-1.89-.109-2.829V24.423a1.211,1.211,0,0,0-.149-.4c-.1.121-.286.255-.286.389,0,.952-.136,1.917-.136,2.869v5.457c0,1.408.082,2.842,0,4.25-.136,2.9.326,5.819-.408,8.688a6.877,6.877,0,0,0,0,1.823,1.5,1.5,0,0,1-.122.791,2.837,2.837,0,0,1-.693.55,2.646,2.646,0,0,1-.245-.737c0-1.341-.1-2.681,0-4.022a5.851,5.851,0,0,1,.421-1.341,2.246,2.246,0,0,0,0-.536c0-1.622,0-3.258-.1-4.88a33.361,33.361,0,0,1,.272-4.518,12.244,12.244,0,0,0-.027-2.239c-.122.308-.258.63-.38.952a3.816,3.816,0,0,1-.367-.952,7.944,7.944,0,0,1,0-1.341c0-.094.109-.188.163-.282a1.087,1.087,0,0,1,.19.268c.149.483.285.965.435,1.448.163-2.252.34-4.491.5-6.7a.8.8,0,0,0,0-.362,2.122,2.122,0,0,0-.3-.308,2.652,2.652,0,0,0-.081.349c-.149,1.341-.272,2.749-.435,4.129a1.842,1.842,0,0,1-.272.6,2.238,2.238,0,0,1-.177-.563V16.392c0-1.85.082-3.7.109-5.564V9.38a3.715,3.715,0,0,1-.109-.416,2.381,2.381,0,0,1,.15-1.233c.081-.174.231-.308.313-.483a2.479,2.479,0,0,0,.177-.536,19.061,19.061,0,0,0,0-2.159c0-.161-.1-.349,0-.456a7.045,7.045,0,0,1,.612-.657,2,2,0,0,1,.19.657c0,.617-.149,1.22-.177,1.837V8.616c0,.282-.3.536-.421.818s-.149.483,0,.59c.72.9.272,1.9.313,2.869V14.81c0,.322-.163.657-.15.979,0,.9.1,1.783.15,2.681,0,.08.136.161.2.241a1.445,1.445,0,0,0,.245-.255c.082-.161.109-.349.177-.51a2.867,2.867,0,0,1,.149.563c.1,1.341.163,2.681.231,4.022a1.746,1.746,0,0,0,0,.375,1.872,1.872,0,0,0,.2.536c.122-.2.313-.389.326-.59a14.932,14.932,0,0,0,0-1.743c0-1.448-.177-2.9-.2-4.344,0-.845.136-1.716.15-2.574V9.944c0-1.421.122-2.869.231-4.3,0-.147.285-.268.435-.389.217.268.639.737.6.791-.747.8-.313,1.85-.53,2.762a10.33,10.33,0,0,0-.041,2.856c.109,1.475.2,3.03.2,4.532.068,1.341.177,2.534.19,3.794,0,.912-.15,1.837-.15,2.748a8.059,8.059,0,0,0,.218,1.341,3.823,3.823,0,0,0,.367-1.18c0-2.118-.1-4.237-.122-6.368a1.909,1.909,0,0,1,.38-.711c.122.241.34.469.353.724.081,2.051.122,4.116.19,6.181,0,1.689.081,5.054.149,6.7a.794.794,0,0,0,.109.469.315.315,0,0,0,.431.1l0,0v-7.28a.358.358,0,0,1,0-.2S372.9,22.519,372.945,22.707Zm5.042.845a2.43,2.43,0,0,1,.286.818v.483a2.634,2.634,0,0,1-.082.308,1.835,1.835,0,0,0-.081-.255c-.218-.282-.462-.536-.652-.831a2.657,2.657,0,0,1-.177-.577c.245,0,.625-.067.707.054Zm-.652-1.622a1.707,1.707,0,0,1,0-.456c0-.174.2-.576.449-.456a.283.283,0,0,1,.15.188.544.544,0,0,1,0,.255v.992c0,.335-.285.215-.544.228A3.428,3.428,0,0,1,377.334,21.929Zm2.827,1.22v4.987c0,1.663-.109,3.767-.2,5.551v4.893a1.682,1.682,0,0,1,0,.456,1.068,1.068,0,0,1-.177.322,1.193,1.193,0,0,1-.109-.335,3.4,3.4,0,0,1,0-.912,2.558,2.558,0,0,0-.353-1.917,3.574,3.574,0,0,1-.109-1.837,7.568,7.568,0,0,0,.149-1.435,1.1,1.1,0,0,0-.747-.711c-.421,0-.448.349-.448.8,0,1.5-.082,3-.163,4.5,0,.107-.136.228-.217.335a1.329,1.329,0,0,1-.149-.375c-.068-1.126-.136-2.252-.163-3.392,0-.389.081-.791.1-1.18l.163-4.719a3.511,3.511,0,0,1,.1-.644c0-.094.149-.174.217-.268s.231.161.231.255v1.341c0,.871-.1,1.729-.109,2.6,0,.134.245.416.3.4.272-.094.734-.228.747-.389.149-1.649.285-3.311.313-4.961,0-1.059-.136-2.118-.163-3.177a17.582,17.582,0,0,1,.109-2.534c0-.241.435-.442.666-.657a2.65,2.65,0,0,1,.2.63V23.2ZM378.8,19.61a1.528,1.528,0,0,1-1.033.094,9.49,9.49,0,0,1-2.8-.992,4.822,4.822,0,0,1-1.712-2.185,3.628,3.628,0,0,1,1.9-4.545,10.2,10.2,0,0,1,2.052-.55,4.253,4.253,0,0,1,1.481,8.178Zm3.574,1.341V31.529a6.045,6.045,0,0,1-.8,1.716h-.149a.53.53,0,0,1-.1-.241,15.845,15.845,0,0,1,0-2.132,20.734,20.734,0,0,0,0-4.3,28.5,28.5,0,0,1,.3-2.99c0-.778-.068-1.569-.109-2.36s-.082-1.341-.136-2.011v-.362c.177-.349.394-.684.6-1.019a3.842,3.842,0,0,1,.367,1.046,18.54,18.54,0,0,1,0,1.944Zm.272-5.872s-.136.161-.19.147a.311.311,0,0,1-.177-.188,2.956,2.956,0,0,1-.217-.8c0-.952.1-1.9.082-2.856,0-.456-.177-.912-.177-1.341,0-1.113.082-2.226.109-3.338V4.648a.489.489,0,0,1,0-.2.151.151,0,0,1,.19,0,.554.554,0,0,1,.082.161,10.087,10.087,0,0,1,.245,1.582,14.024,14.024,0,0,0,.068,1.689c0,1.14.109,2.266.149,3.405l.082,2.266a7.5,7.5,0,0,1-.326,1.475Zm.938,26.814c0,.215-.19.4-.285.6a2.994,2.994,0,0,1-.15-.577V34.237a1.328,1.328,0,0,1,.177-.469,1.815,1.815,0,0,1,.245.523v2.494h0c-.054.845-.041,4.17-.068,5.054Zm1.359-4.129c0,.107-.149.215-.231.322,0-.134-.163-.255-.163-.389V36.355h0V35.015c0-.121.149-.228.231-.335s.163.2.163.295c-.014.952-.027,1.837-.054,2.735Zm0-6.811v2.842a1.035,1.035,0,0,1-.122.322c0-.08-.19-.161-.2-.241,0-.509-.1-1.019-.136-1.542a11.392,11.392,0,0,0-.109-1.528,34.4,34.4,0,0,1-.285-3.714,46,46,0,0,1,.489-4.92V21.7h-.231V17.854c0-.2.163-.389.245-.59a1.763,1.763,0,0,1,.177.577v3.405a.975.975,0,0,0,0,.282,66.113,66.113,0,0,1,.15,9.371Zm-.815-15.606c.082-.9.177-1.783.272-2.681,0-.107.082-.188.122-.282s.163.188.163.295c0,1.126,0,2.239.068,3.365,0,.134-.109.255-.177.389-.122-.121-.326-.215-.353-.349a2.644,2.644,0,0,1,0-.724Zm.72-4.666a.757.757,0,0,1,0,.174c-.082.228-.163.442-.258.657a2.759,2.759,0,0,1-.217-.644c-.1-1.233-.245-2.48-.245-3.727,0-.147-.068-.335,0-.456a3.576,3.576,0,0,0,.285-2.024,8.891,8.891,0,0,0-.122-1.032,1.991,1.991,0,0,1,0-.51V2.65a.429.429,0,0,0-.163-.241.313.313,0,0,0-.34-.188c-.136,0-.19.228-.2.389l-.122.979a1.106,1.106,0,0,1,0,.2.191.191,0,0,1-.177.08c-.109,0-.136-.161-.136-.268V2.409a.889.889,0,0,0-.109-.509.807.807,0,0,0-.652-.255.425.425,0,0,1-.34-.107.3.3,0,0,1,0-.362c.163-.228.394-.228.652-.215a1.882,1.882,0,0,1,.38,0l.435.147c1.631.456,1.767,1.756,1.726,3.084-.054,2.159-.231,4.33-.367,6.489Zm2,1.636c0,3.848-.3,7.7-.122,11.517.15,3.11-.177,6.181-.1,9.264.082,3.687-.068,7.374-.122,11.047a4.19,4.19,0,0,1-.149,1.006,1.913,1.913,0,0,1-.313.5,2.072,2.072,0,0,1-.177-.59c0-1.663.068-3.338.068-5s-.109-3.177-.109-4.759a46.53,46.53,0,0,1,.1-5.363,20.071,20.071,0,0,0,0-3.727V25.013c0-1.957-.136-3.928-.19-5.9a10.748,10.748,0,0,1,.068-1.475c0-2.279.109-4.545.136-6.824s0-4.867,0-7.293c0-.268.231-.536.353-.8.177.241.462.483.5.764a10.034,10.034,0,0,1,.054,1.609Zm1.047,19.346a1.059,1.059,0,0,1-.231.335c-.068-.148-.19-.282-.19-.416,0-.912,0-1.823.068-2.681V27.8a1.466,1.466,0,0,1,.231-.429c.1.107.245.2.272.322.122.617.2,1.247.326,2.011-.163.55-.353,1.26-.544,1.957Zm.666,5.363c0-.4-.285-1.1,0-1.421a.275.275,0,0,1,.381,0c.19.147.177.456.136.711l-.34,2.534c0,.2-.109.442-.272.429-.041-.764.041-1.515.027-2.239Zm.448-2.681c0,.067-.068.147-.1.214s-.2-.134-.217-.228c-.1-.563-.163-1.126-.218-1.488a20.6,20.6,0,0,1,.163-2.266c0-.134.2-.255.3-.389,0,.134.163.268.163.389-.1,1.327-.122,2.507-.163,3.767Zm0-7.924-.1,1.662s0,.121-.082.134-.109-.08-.109-.161c0-.536-.1-1.086-.082-1.622a.558.558,0,0,0,.082-.161c.013-.067,0-.55.122-.657s.2.08.19.228Zm.408-10.27a5.957,5.957,0,0,0,0,.7.474.474,0,0,1,0,.241.163.163,0,0,1-.2.107h0c-.082,0-.1-.147-.1-.255V15.427c0-.375-.122-.872.3-1.073a.66.66,0,0,1,.19.147c.149.335-.082.737-.136,1.086a4.815,4.815,0,0,0-.068.563Zm1.2-8.379L390.4,7.41a9.49,9.49,0,0,1-.557-.939,2.354,2.354,0,0,1,.109-.416c.041-.147.34,0,.394.147a8.2,8.2,0,0,1,.5,1.046Z" transform="translate(-359.605 0.291)" fill="#82670e"/>
</svg>
