<svg xmlns="http://www.w3.org/2000/svg" width="112.566" height="115.92" viewBox="0 0 112.566 115.92">
  <path id="Path_70" data-name="Path 70" d="M430.027,751.422,429.3,751l.411-.723a2.044,2.044,0,0,0-.551.041l-.477.091.116-.469a.437.437,0,1,0-.707-.411l-.354.338-.156-.452a2.094,2.094,0,0,0-.247-.51l-.42.724-.724-.411a2.212,2.212,0,0,0,0,.568l.1.477-.477-.115a.95.95,0,0,0-.716.049.988.988,0,0,0,.313.641l.345.354-.468.156a2.056,2.056,0,0,0-.5.247l.724.42-.419.724a2.131,2.131,0,0,0,.559-.042l.477-.09-.115.469a.929.929,0,0,0,.057.724.976.976,0,0,0,.65-.312l.345-.329.157.452a3.121,3.121,0,0,0,.247.5l.419-.724.724.411a2.1,2.1,0,0,0,0-.559l-.091-.485.469.123a.943.943,0,0,0,.715-.049.926.926,0,0,0-.312-.649l-.346-.354.469-.156A2.244,2.244,0,0,0,430.027,751.422Zm-2.3,1.192-1.4-.822.822-1.4,1.4.822ZM414.4,777.422a4.881,4.881,0,0,1,.246-3.4,69.814,69.814,0,0,0-9.168-1.8c1.545,6.628,6.792,13.338,7.458,14.366,1.242,1.915,1.472,3.651.427,5a10.13,10.13,0,0,1-3.059,2.343c-.576.3-.674.46-.633.715s.5,1.217,2.565.625a4.539,4.539,0,0,0,3.043-2.261,2.464,2.464,0,0,1-.822,1.7,7.241,7.241,0,0,1-3.354,1.546c.9,1,2.187.461,2.8.173,1.275-.609,1.949-1.48,3.7-4.153,2.065-3.157.329-6.306-.575-8.025A42.052,42.052,0,0,1,414.4,777.422Zm6.932-25.187c4.177.2,4.111-2.689,2.828-3.132a3.709,3.709,0,0,1-3.387.9,9.913,9.913,0,0,1-6.636-5.025,1.029,1.029,0,0,0-.979.691,3.231,3.231,0,0,0,.732,2.582A10.289,10.289,0,0,0,421.335,752.236Zm-21.716,19.792a73.064,73.064,0,0,0-8.379.519,24.186,24.186,0,0,0-8.222,2.072c-4.112,1.81-10.04,9.275-11.389,10.961a30.157,30.157,0,0,1-5.648,5.279c-2.056,1.447-2.36,3.93-2.763,5.526a13.165,13.165,0,0,1-1.529,3.626,5.344,5.344,0,0,0-.921,3.832,23.258,23.258,0,0,0,1.842,6.414,6.946,6.946,0,0,1,.518,3.437,2.806,2.806,0,0,0,.863,2.467,10.065,10.065,0,0,0,2.2,1.842c.822.37,1.7.3,1.645-.3,0-1.242-.9-1.752-2.171-3.429a9.265,9.265,0,0,1-1.513-4.481,12.039,12.039,0,0,0,2.705,4.662,15.515,15.515,0,0,1,1.735,2.467c.88-1.76-.633-2.721-1.472-4.071s-1.06-4.3-1.389-7.4.287-4.275.9-5.2,3.289-4.852,4.6-7.121,6.85-12.186,9.456-15.78,5.155-3.19,6.627-3.067a47.69,47.69,0,0,0,9.333.3,16.011,16.011,0,0,0,8.223-2.467C402.662,772.028,399.619,772.028,399.619,772.028ZM367.9,795.38l-.074.1c-.131.172-.263.354-.419.354h-.042a.238.238,0,0,1-.181-.206v-.354a.606.606,0,0,1,0-.395l.082-.139.058-.082a.287.287,0,0,1,.386-.124h.066a.347.347,0,0,1,.247.222A.765.765,0,0,1,367.9,795.38Zm0-2.36a2.457,2.457,0,0,0-.189.164c-.3.255-.543.444-.732.444a.238.238,0,0,1-.107,0,.321.321,0,0,1-.165-.329s.042-.255.066-.493v-.148a.959.959,0,0,1,.189-.617,2.621,2.621,0,0,1,.2-.214l.141-.14a.394.394,0,0,1,.555-.052l0,0,.123.082c.132.091.3.205.3.394a1.209,1.209,0,0,1-.4.9Zm2.352-1.833a2.826,2.826,0,0,0-.09.313.423.423,0,0,1-.181.321h-.1a.372.372,0,0,1-.124,0,1.425,1.425,0,0,1-.369-.5,1.018,1.018,0,0,1-.042-.765s.042-.1.074-.164c.107-.271.222-.543.419-.551h0a.273.273,0,0,1,.239.189h0s.049.164.107.337l.041.1a.823.823,0,0,1,.082.493,1.9,1.9,0,0,1-.074.231Zm1.9-2.853-.041.041a1.622,1.622,0,0,1-.37.3,1.122,1.122,0,0,1-.387.074.409.409,0,0,1-.271-.074.478.478,0,0,1-.084-.67l.017-.021a1.311,1.311,0,0,0,.239-.3h0a.713.713,0,0,1,.427-.419.424.424,0,0,1,.4.041.216.216,0,0,1,.042.189h0a.264.264,0,0,0,0,.2.684.684,0,0,1,.008.642Zm42.659-43.918s4.539,7.1,9.127,4.876a8.972,8.972,0,0,1,1.809-4.884c1.48-1.916,2.606-2.1,3.429-2.2a11.974,11.974,0,0,0,2.574-.321c1.357-.387,1.077-2.13,1.077-2.13a31.99,31.99,0,0,1-4.112.205,7.883,7.883,0,0,1-2.9-.494,29.086,29.086,0,0,0,5.805-.222,1.513,1.513,0,0,0,1.467-1.558,1.46,1.46,0,0,0-.02-.2c-.057-.42-.394-.584-.641-.74s-1.464-.691-1.727-.822h2.1c.346,0,.732,0,.617-.264-.321-.649-3.1-1.438-3.4-1.562a12.96,12.96,0,0,1-1.775-.9,7.4,7.4,0,0,0-3.734-.979,4.82,4.82,0,0,0-2.911,1.258,4.577,4.577,0,0,1-2.211.674c-2.467.23-3.454,1.134-3.709,1.414a1.324,1.324,0,0,0-.107,1.826,9.458,9.458,0,0,0,1.842,1.431A27.66,27.66,0,0,0,416.2,741.4C415.859,742.378,414.814,744.417,414.814,744.417Zm9.868-10h.049a15.031,15.031,0,0,1,3.215-.436,14.059,14.059,0,0,1,1.134,1.422c.066.082.181.321-.247.205s-3.009-.912-4.16-1.134c-.066-.033-.024-.05,0-.057Zm-5.855,12.194a.719.719,0,0,1-.042.23.368.368,0,0,1-.271.223h0a.271.271,0,0,1-.287-.254v-.017a.558.558,0,0,0,0-.164.387.387,0,0,1,0-.329c.066-.091.14-.14.206-.132a.157.157,0,0,1,.115.091h0a.326.326,0,0,1,.231.3Zm.279-2.385v.058a.246.246,0,0,1-.2.189l-.148.049a.184.184,0,0,1-.091,0,.2.2,0,0,1-.106-.041c-.132-.1-.107-.395-.091-.461a.436.436,0,0,1,.141-.271.263.263,0,0,1,.312,0l.115.1.049.049a.205.205,0,0,1,.048.286.224.224,0,0,1-.04.042Zm.494-2.714a.515.515,0,0,1-.164,0,.345.345,0,0,1-.354-.254,1.709,1.709,0,0,0-.115-.288h0a.6.6,0,0,1-.123-.469c.044-.159.11-.249.2-.272a.166.166,0,0,1,.164.049.161.161,0,0,0,.132.049h0c.139,0,.427.116.476.3v.049a1.339,1.339,0,0,1,.066.378c-.024.082-.114.412-.287.46Zm-2.656-5.328c.189-.822,1.537-1.159,2.047-1.283a18,18,0,0,1,4.391-.345,11.007,11.007,0,0,0-4.465,1.176c-.452.28-1.036.979,0,1.982a7.626,7.626,0,0,0,3.1,1.645,9.556,9.556,0,0,1-4.2-1.423,1.75,1.75,0,0,1-.88-1.751Zm.436,5.945h0a.666.666,0,0,1,.189-.378.353.353,0,0,1,.436,0,1.259,1.259,0,0,1,.181.148l.091.091a.28.28,0,0,1,.084.386.25.25,0,0,1-.018.025l-.057.1c-.057.115-.131.254-.279.288a1.724,1.724,0,0,0-.263.082.26.26,0,0,1-.116,0,.169.169,0,0,1-.124,0,1,1,0,0,1-.131-.739Zm-.461,2.532a1.876,1.876,0,0,0,0-.362.444.444,0,0,1,.09-.362.232.232,0,0,1,.206-.049h0c.2,0,.477.346.51.379a.959.959,0,0,1,.247.756.939.939,0,0,0,0,.19c-.049.369-.107.633-.279.682h-.058a.31.31,0,0,1-.222-.124l-.214-.32a.774.774,0,0,0-.066-.091.82.82,0,0,1-.214-.469.649.649,0,0,1-.008-.231ZM435.98,779a9.95,9.95,0,0,0-5.32-6.34c-.987-.493-7.4-3.684-8.165-4.07a6.24,6.24,0,0,1-3.626-4.111,27.53,27.53,0,0,1,.082-9.464c.206,6.915,1.217,9.169,1.5,9.949.658,1.76,1.3,1.357,1.925.938,5.213-3.684,1.965-13.831,1.965-13.831-3.454,1.6-7.482.3-9.588-1.34a6.836,6.836,0,0,1-2.36-3.248,18.683,18.683,0,0,1-5.353,4.029,43.753,43.753,0,0,1,1.858,8.1c-7.754-25.54-15.056-32.743-19.373-38.794-13.279-18.682-30.1-17.778-38.03-17.531a57.676,57.676,0,0,1-13.3-.979s-2.047,7.573,8.593,8.881c6.718.534,17.769-.082,20.63.164s6.258.493,8.634,1.644a47.331,47.331,0,0,0-11.643-.346c-7,.551-18.23,1.283-24.372-1.044a7.984,7.984,0,0,0,6.578,7.606c6.636,1.48,16.577.74,19.241.494s12.573-.822,18.97,1.645a61.613,61.613,0,0,0-17.917-.3c-9.636,1.119-17.719,1.316-21.855-.2,0,0-1.267,4.111,3.848,5.279s7.162.979,14.036.822,21.651-.288,26.034,1.431a140.156,140.156,0,0,0-16.659,0c-8.387.576-20.376,1.645-24.265-1.1,0,0,.4,5.443,7.079,6.019s16.659-.082,19.891-.206,15.262-.493,20.557,1.645a80.451,80.451,0,0,0-15.755-.493c-9.374.534-23.2,1.759-27.587.123a12.494,12.494,0,0,0,9.991,5.238,146.433,146.433,0,0,0,17.884-.617c2.261-.164,15.425-.822,19.48,2.088,0,0-5.855-2.047-16.248-1.266s-18.829,2.212-24.47.534c0,0,2.738,4.383,10.064,4.415,9.045.042,23.023-2.466,31.641-.123a83.7,83.7,0,0,0-14.167-.124c-7.524.617-15.623,1.645-19.932,1.069,0,0,1.743,3.479,8.272,4.219a95.973,95.973,0,0,0,14.8-.041c2.335-.14,8.962-.5,12.178.567,0,0-5.518-.091-11.093.288-6.66.452-14.982,1.02-18.583-.205,0,0,.576,4.234,7.4,5.139a65.984,65.984,0,0,0,12.77.124c3.437-.247,9.793-.189,12.86,1.349a60.751,60.751,0,0,0-9.909-.37c-4.6.313-14.249,1.11-18.542-.822a13.492,13.492,0,0,0,10.147,5.123c6.578.321,16.223-1.48,22.325,3.717v.049c-5.328-3.207-15.426-2.59-18.493-2.468a28.916,28.916,0,0,1-6.249-.369,11.85,11.85,0,0,0-6.874.51,19.093,19.093,0,0,1-6.076,1.151c-7.071.3-11.125,2.821-15.064,5.854s-10.689,4.991-12.523,5.362a71.192,71.192,0,0,0-10.229,2.656c-3.889,1.43-8.124,5.525-8.724,6.142-1.052,1.094-1.43,3.4.872,3.347s3.231-1.365,6.742-4c4.194-3.149,11.873-3.988,17.8-5.813,5.436-1.645,11.587-6.709,13.773-8.445a20.489,20.489,0,0,1,10.468-4.456c-15.343,5.1-16.051,18.089-16.38,19.249-.9,3.239-3.659,6.816-7.343,9.176a11.063,11.063,0,0,0-5,6.191,29.268,29.268,0,0,1-1.267,4.029,4.113,4.113,0,0,1-2.467,2.467c-.617.3-.658.649-.822,1.323s.312.97.551.913a5.69,5.69,0,0,0,3.709-3.231,5.364,5.364,0,0,1-1.686,3.042,5.422,5.422,0,0,1-1.9,1.234,1.316,1.316,0,0,0-.822.945,1.423,1.423,0,0,0,.519,1.472c.468.321,1.858.14,2.845-1.1a11.279,11.279,0,0,0,1.973-3.38c.954-2.228,3.643-7.088,7.261-9.867a57.947,57.947,0,0,1,7.335-4.638A49.193,49.193,0,0,0,372.879,781.7c4.6-5.649,8.987-8.757,14.226-9.744a66.02,66.02,0,0,1,8.494-1.1,63.606,63.606,0,0,1,10.985.132,34.944,34.944,0,0,1,6.784,1.381c-1.817-1.645-2.138-4.037-2.582-5.756-.312-1.209-.641-2.7-.641-2.7s1.513,3.149,2.294,5.156,2.13,3.4,5.073,4.012a74.891,74.891,0,0,1,12.713,3.6,3,3,0,0,1,2.088,3.133,49.415,49.415,0,0,0,.379,5.37c.279,1.595,1.2.954,1.2.954,2.467-1.2,0-6.874,0-6.874,2.788,3.561,1.645,6.076,1.645,6.076C436.259,784.855,437.279,783.3,435.98,779Zm-74-70.559c-9.275-.238-17.062-.4-19.734-2.285a69.937,69.937,0,0,0,11.24,1.019c6.422.082,17.342.37,24.734,4.629A47.071,47.071,0,0,0,361.975,708.442Zm4.21,7.73c-9.719.345-17.382.822-21.041-.65a79.375,79.375,0,0,0,10.245.288c5.493-.2,21.3-1.776,29.5,2.516.025,0-5.525-2.615-18.682-2.154Zm10.788,7.926c-8.041-.057-11.585.272-15.623.362a35.485,35.485,0,0,1-9.374-.625s5,.1,9-.123c3.034-.172,22.9-1.537,28.738,1.7A56.164,56.164,0,0,0,377,724.1Zm-1.019,6.883c-9.276.649-17.934.953-21.38-.132,0,0,5.9.172,11.027,0,5.46-.214,20.335-1.883,28.878,1.192C393.485,731.737,387.787,730.142,375.955,730.981Zm2.943,5.829c-9.3.649-16.626,1.382-20.326.058a87.832,87.832,0,0,0,9.867-.131c5.484-.362,20.351-1.925,28.294.945,0,0-6.529-1.669-17.851-.872Zm3.617,5.279c-8.79.732-15.335,1.546-18.854.271a57.307,57.307,0,0,0,9.193-.107c5.188-.452,19.3-2.089,26.929.321a74.811,74.811,0,0,0-17.251-.485Zm6.069,5.4c-4.67.271-12.1.707-15.623-.123,0,0,4.325.057,9.39-.123,4.333-.157,12.926-.954,16.947-.124-.049,0-6.077.091-10.731.37Zm4.53,5.665c-3.363.066-13.855.9-17.177-.674a81.678,81.678,0,0,0,13.445.411c7.2-.263,10.384-.148,12.572.411-.016,0-4.539-.189-8.856-.148Zm-67.08,32.381h0a1.643,1.643,0,0,1-.255.2.827.827,0,0,1-.247.041.315.315,0,0,1-.222-.066.354.354,0,0,1,0-.5v0a.824.824,0,0,0,.165-.189h0a.424.424,0,0,1,.271-.247.255.255,0,0,1,.312.074.379.379,0,0,1,.074.263.31.31,0,0,0,0,.066.417.417,0,0,1-.115.362Zm1.792-1.291c-.107.264-.542.379-.756.379h-.222a.908.908,0,0,1-.551-.14.592.592,0,0,1-.189-.666c0-.1.116-.239.181-.37a1.89,1.89,0,0,0,.107-.214.427.427,0,0,1,.527-.3.306.306,0,0,1,.049.017.558.558,0,0,1,.394.551c0,.148.231.263.3.3h.041a.361.361,0,0,1,.1.443Zm3.075-3.289a1.47,1.47,0,0,1-.633.995c-.074,0-.164.091-.263.148a2.113,2.113,0,0,1-.872.386.339.339,0,0,1-.164-.041.38.38,0,0,1-.115-.387s.1-.28.181-.567a.268.268,0,0,1,.042-.173,1.139,1.139,0,0,1,.329-.674l.312-.222a3.184,3.184,0,0,0,.453-.345.592.592,0,0,1,.477-.222.288.288,0,0,1,.222.156,2.1,2.1,0,0,1,.016.979Zm1.99-.172a1.4,1.4,0,0,1,0,.362c0,.074-.2.345-.371.353h0a.369.369,0,0,1-.409-.326.107.107,0,0,1,0-.02,1.079,1.079,0,0,0,0-.287h0a.491.491,0,0,1,0-.4.28.28,0,0,1,.287-.189.375.375,0,0,1,.264.14l.066.041c.1.074.238.173.238.313ZM335,779.453a1.4,1.4,0,0,1-.189.091,1.121,1.121,0,0,0-.329.181.822.822,0,0,1-.6.255,1.1,1.1,0,0,1-.4-.083,2.045,2.045,0,0,0-.494-.156,1.023,1.023,0,0,1-.378-.132.553.553,0,0,1-.271-.535c0-.148.164-.337.609-.4a5.3,5.3,0,0,0,.732-.108h.041c.2-.082.609-.238.88-.057a5.105,5.105,0,0,0,.542.3.229.229,0,0,1,.123.206.549.549,0,0,1-.279.468Zm3.289-2.171a.352.352,0,0,0-.049.287c0,.157,0,.634-.272.749h-.074a2.015,2.015,0,0,1-.542.214h-.058c-.173,0-.584-.057-.682-.246a.56.56,0,0,1,.112-.784.585.585,0,0,1,.06-.039,2.288,2.288,0,0,0,.419-.28h.041a.822.822,0,0,1,.642-.321.478.478,0,0,1,.419.189.189.189,0,0,1-.056.261l0,0Zm1.25.872h0a.563.563,0,0,1-.346.156h0a.32.32,0,0,1-.312-.247,1.1,1.1,0,0,1,0-.206.635.635,0,0,1,0-.115.255.255,0,0,1,.162-.322l.027-.007a.3.3,0,0,1,.362.123.183.183,0,0,0,.148,0h0a.2.2,0,0,1,.206.173,1.359,1.359,0,0,1-.288.476Zm2.869-1.39a1.176,1.176,0,0,1-.822.535h-.239a4.809,4.809,0,0,1-.51.049c-.181,0-.312,0-.378-.132a.32.32,0,0,1,.041-.346l.3-.362a.827.827,0,0,0,.083-.107.9.9,0,0,1,.469-.4l.3-.074a3.139,3.139,0,0,0,.427-.106h0a.5.5,0,0,1,.436,0,.246.246,0,0,1,.123.2,1.64,1.64,0,0,1-.279.781Zm2.039.4a.179.179,0,0,1-.14.074.122.122,0,0,0-.091,0,.466.466,0,0,1-.321.132.24.24,0,0,1-.131,0h0a1.119,1.119,0,0,1-.247-.181s-.189-.287-.107-.435a.338.338,0,0,1,.447-.167l.006,0a.761.761,0,0,0,.214.1v.106l.049-.106a.5.5,0,0,1,.337.205,1.567,1.567,0,0,1-.057.3Zm1.045-.93a1.82,1.82,0,0,1-.256.181l-.148.082a.453.453,0,0,1-.254.1.338.338,0,0,1-.255-.14.436.436,0,0,1,0-.526.587.587,0,0,0-.082-.272h0a.3.3,0,0,1,.091-.337c.181-.139.526,0,.658.041h0a.83.83,0,0,1,.411.37.444.444,0,0,1-.206.534Zm3.289-.871-.058.049a1.537,1.537,0,0,1-.4.312,1.059,1.059,0,0,1-.386.066.419.419,0,0,1-.313-.09.494.494,0,0,1-.075-.694.374.374,0,0,1,.026-.03,1.9,1.9,0,0,0,.279-.337v-.049a.666.666,0,0,1,.4-.387.37.37,0,0,1,.444.107.5.5,0,0,1,.107.395.752.752,0,0,0,0,.115c.016.214.016.493-.1.576Zm.978.477-.09.049a.82.82,0,0,1-.346.131.259.259,0,0,1-.107,0,.2.2,0,0,1-.057-.214l.074-.205v-.058a.463.463,0,0,1,.156-.271l.116-.074.066-.041a.222.222,0,0,1,.311.04v.043a.294.294,0,0,1,.107.246.6.6,0,0,1-.3.386Zm1.8-1.965a1.083,1.083,0,0,1-.658.592l-.214.057a2.448,2.448,0,0,1-.584.115.307.307,0,0,1-.247-.091.3.3,0,0,1,0-.321s.132-.189.239-.37l.066-.116a.9.9,0,0,1,.379-.419,1.677,1.677,0,0,1,.247-.091l.156-.057a.353.353,0,0,1,.473.163l0,.009.057.107c-.009.156.082.3.008.452Zm1.488-.058v.091a.741.741,0,0,1-.131.4l-.148.139a1.351,1.351,0,0,0-.189.189.361.361,0,0,1-.264.172h0a.208.208,0,0,1-.164-.1,1.186,1.186,0,0,1-.074-.526.871.871,0,0,1,.28-.592.488.488,0,0,0,.115-.091c.2-.156.395-.321.543-.247a.248.248,0,0,1,.115.247.822.822,0,0,0-.157.346Zm2.788-1.447-.041.049a1.625,1.625,0,0,1-.329.321,1.007,1.007,0,0,1-.436.115.284.284,0,0,1-.189-.057.443.443,0,0,1-.159-.607.285.285,0,0,1,.029-.042,1.345,1.345,0,0,0,.2-.321v-.041a.691.691,0,0,1,.37-.436c.181-.066.3-.066.387,0a.18.18,0,0,1,.057.173.251.251,0,0,0,.049.2.665.665,0,0,1-.016.682Zm1.907-1.645-.106.157c-.2.3-.346.5-.518.5h0c-.088,0-.154-.074-.2-.222-.066-.222,0-.2-.057-.387v-.107a.766.766,0,0,1,0-.509l.123-.222a2.948,2.948,0,0,0,.165-.312.458.458,0,0,1,.238-.287.227.227,0,0,1,.2,0,1.293,1.293,0,0,1,.3.567.962.962,0,0,1-.222.831Zm1.645-.115h-.057a.345.345,0,0,1-.214.1h0a.891.891,0,0,0-.164,0,.189.189,0,0,1-.164-.1c-.074-.148.074-.4.115-.461a.44.44,0,0,1,.238-.181.265.265,0,0,1,.289.132h0a.678.678,0,0,1,.066.132v.066a.215.215,0,0,1-.077.293.222.222,0,0,1-.13.028Zm.757-1.282-.1.065a.577.577,0,0,1-.312.148h-.057c-.092-.018-.186-.032-.279-.041a.247.247,0,0,1-.214-.115c-.107-.214.131-.609.189-.682h0a.669.669,0,0,1,.337-.256.355.355,0,0,1,.395.181,1.048,1.048,0,0,1,.09.214l.049.115a.28.28,0,0,1-.153.365.307.307,0,0,1-.044.014Zm1.645-1.373a1.429,1.429,0,0,1-.115.411c-.042.065-.263.329-.453.329h0a.411.411,0,0,1-.4-.424c0-.012,0-.024,0-.037a1.494,1.494,0,0,0,0-.346h0a.642.642,0,0,1,.1-.526c.115-.131.222-.189.312-.172a.189.189,0,0,1,.131.115.2.2,0,0,0,.124.132h0c.115.049.362.3.32.51Zm2.64-1.7a.941.941,0,0,1-.526.592l-.181.066a1.833,1.833,0,0,1-.559.164.239.239,0,0,1-.173-.066.265.265,0,0,1-.049-.3s.1-.172.173-.346l.049-.1a.818.818,0,0,1,.3-.419l.231-.116a1.843,1.843,0,0,0,.312-.164.444.444,0,0,1,.362-.091.23.23,0,0,1,.148.14,1.284,1.284,0,0,1-.214.649Zm1.858-.132h-.123a.379.379,0,0,1-.271-.148h-.222a.255.255,0,0,1-.222-.172c-.042-.181.139-.387.222-.461h0a.622.622,0,0,1,.378-.173h0a.362.362,0,0,1,.337.255.507.507,0,0,0,.041.231c.041.082,0,.082,0,.115a.386.386,0,0,1-.271.362Zm7.154.181c.123-.231.534-.287.724-.287h.049a.982.982,0,0,1,.625.189.535.535,0,0,1,.115.633,2.948,2.948,0,0,1-.189.321l-.115.164a.418.418,0,0,1-.37.254.392.392,0,0,1-.2-.049.517.517,0,0,1-.312-.542c0-.1-.148-.214-.222-.246H373.5a.345.345,0,0,1-.2-.427Zm-12.244,19.43-.041.041a1.206,1.206,0,0,1-.3.239,1.037,1.037,0,0,1-.3.049.327.327,0,0,1-.254-.082.411.411,0,0,1-.06-.578.232.232,0,0,1,.02-.022,1.293,1.293,0,0,0,.081-.2v-.042a.547.547,0,0,1,.329-.3.3.3,0,0,1,.378.091.441.441,0,0,1,.082.32v.074a.468.468,0,0,1-.057.411Zm2.278-2a.108.108,0,0,0-.074.082.575.575,0,0,1-.427.346H362.8a1.274,1.274,0,0,1-.37-.066c-.074-.042-.345-.239-.337-.436a.411.411,0,0,1,.411-.411h.008a1.264,1.264,0,0,0,.288,0,.62.62,0,0,1,.51.049h0c.139.1.2.2.189.3a.2.2,0,0,1-.156.148Zm.37-2.385c0,.107-.181.535-.419.584h-.156a.485.485,0,0,1-.509-.387h0a1.461,1.461,0,0,0-.115-.386v-.058a.671.671,0,0,1-.1-.559.411.411,0,0,1,.361-.337.55.55,0,0,1,.394.132l.1.049c.165.082.387.189.42.378v.074a1.5,1.5,0,0,1-.107.519Zm.822-3.577a2.649,2.649,0,0,0-.1.272c-.164.517-.3.888-.567.921h0a.4.4,0,0,1-.321-.222s-.115-.271-.231-.526l-.074-.148a1.121,1.121,0,0,1-.189-.716.924.924,0,0,1,.074-.337l.057-.214a.46.46,0,0,1,.524-.387H364c.189,0,.419,0,.526.206a1.417,1.417,0,0,1,.041,1.16Zm.157-2.886v-.213c-.042-.362-.074-.732.139-.822a.337.337,0,0,1,.378.057l.337.321.107.091a.954.954,0,0,1,.37.485.565.565,0,0,0,.057.288,1.63,1.63,0,0,0,.082.386.5.5,0,0,1,0,.46.282.282,0,0,1-.247.124,1.59,1.59,0,0,1-.691-.337,1.217,1.217,0,0,1-.633-.83Zm1.817,6.537-.074.041a.466.466,0,0,1-.28.132h-.2a1.037,1.037,0,0,0-.2,0,.254.254,0,0,1-.23-.132c-.107-.214.115-.559.157-.609a.625.625,0,0,1,.313-.246.346.346,0,0,1,.386.181,1.189,1.189,0,0,1,.082.173v.09a.3.3,0,0,1-.057.379Zm.4-3.166c0,.287-.057.576-.255.649a.143.143,0,0,1-.082,0,.354.354,0,0,1-.239-.107l-.206-.271-.057-.074a.761.761,0,0,1-.214-.428v-.32a.346.346,0,0,1,.319-.371h.084a.4.4,0,0,1,.394.066.89.89,0,0,1,.264.691c-.1.057-.1.115-.141.173Zm.666-5.945-.066.082a2.465,2.465,0,0,1-.486.51,1.626,1.626,0,0,1-.658.164.434.434,0,0,1-.263-.066.666.666,0,0,1-.241-.91c.009-.015.017-.03.027-.044a2.154,2.154,0,0,0,.321-.51v-.049a1,1,0,0,1,.534-.675c.181-.066.419-.124.559,0a.237.237,0,0,1,.082.222.4.4,0,0,0,.083.338c.049.148.206.707.008.945Zm2.031,3.486a1.117,1.117,0,0,0-.123.181c-.222.329-.395.567-.592.567h-.041c-.107,0-.189-.107-.239-.255s0-.223-.057-.436v-.123a.866.866,0,0,1,0-.576l.139-.255a2.035,2.035,0,0,0,.181-.354.517.517,0,0,1,.288-.329.278.278,0,0,1,.238.041,1.432,1.432,0,0,1,.337.641,1.1,1.1,0,0,1-.231.9Zm.781-3.437v.049a.975.975,0,0,1-.428.486.542.542,0,0,1-.222.049.633.633,0,0,1-.444-.214,2.609,2.609,0,0,1-.2-.3l-.1-.156a.426.426,0,0,1,0-.6.474.474,0,0,1,.053-.045.543.543,0,0,1,.65-.074.363.363,0,0,0,.231-.082h.066a.4.4,0,0,1,.444.123.822.822,0,0,1-.157.773Zm1.267-3.684a1.357,1.357,0,0,1-.559.945l-.238.14a1.826,1.826,0,0,1-.822.378.262.262,0,0,1-.157-.041c-.1-.057-.139-.181-.123-.362,0,0,.083-.271.148-.526v-.165a1.065,1.065,0,0,1,.287-.633l.288-.214a4.626,4.626,0,0,0,.395-.32.575.575,0,0,1,.452-.23.3.3,0,0,1,.222.148,1.768,1.768,0,0,1,.009.888Zm1.159,2.573-.074.049a.46.46,0,0,1-.28.124h-.271a.266.266,0,0,1-.231-.131c-.106-.214.115-.568.157-.609a.541.541,0,0,1,.312-.247.371.371,0,0,1,.395.172,1.422,1.422,0,0,1,.073.181v.091a.286.286,0,0,1-.164.372l-.017.006Zm1.727-1.973a.153.153,0,0,0-.083.1.651.651,0,0,1-.485.387h-.091a1.21,1.21,0,0,1-.411-.082c-.049,0-.395-.247-.379-.477a.486.486,0,0,1,.469-.469,1.065,1.065,0,0,0,.321,0,.706.706,0,0,1,.576.057c.156.108.222.222.214.329a.214.214,0,0,1-.23.165Zm1.29,2.3-.115.082a.642.642,0,0,1-.362.165h-.074a1.909,1.909,0,0,0-.321-.041.287.287,0,0,1-.254-.148c-.124-.246.131-.7.214-.822h0a.7.7,0,0,1,.395-.3.436.436,0,0,1,.468.214h0a2.061,2.061,0,0,1,.107.256c.019.043.035.087.049.131a.329.329,0,0,1-.13.447.294.294,0,0,1-.076.03Zm1.1-5.049a.616.616,0,0,1-.445-.75l.009-.03a2.227,2.227,0,0,0,.14-.519v-.074a.818.818,0,0,1,.263-.641.436.436,0,0,1,.543-.108.685.685,0,0,1,.329.387.787.787,0,0,0,.074.123c.115.181.279.427.189.633v.082a2.108,2.108,0,0,1-.288.567,1.249,1.249,0,0,1-.682.346.223.223,0,0,1-.23-.008ZM378.709,769a1.293,1.293,0,0,1-.124.427c-.041.074-.28.354-.485.354h0a.453.453,0,0,1-.44-.465c0-.014,0-.03,0-.045a1.644,1.644,0,0,0,0-.362h0a.691.691,0,0,1,.115-.567c.124-.141.239-.206.337-.181a.173.173,0,0,1,.148.132.2.2,0,0,0,.123.123c.14.058.395.337.354.551Zm1.093-2.467-.091.107c-.139.189-.279.378-.444.378h-.049c-.066,0-.148-.057-.19-.214s0-.164,0-.3v-.082a.6.6,0,0,1,0-.411,1.513,1.513,0,0,1,.091-.157l.066-.082a.3.3,0,0,1,.4-.135l.006,0h.074a.308.308,0,0,1,.263.231.82.82,0,0,1-.2.674Zm2.689,1.316a.254.254,0,0,0-.082.058.6.6,0,0,1-.346.148h-.091a1.469,1.469,0,0,0-.246,0,.288.288,0,0,1-.272-.156c-.131-.272.14-.7.181-.749a.818.818,0,0,1,.387-.3.427.427,0,0,1,.476.221,1.505,1.505,0,0,1,.1.222s0,.074.041.1a.362.362,0,0,1-.2.47l-.02.007Zm.551-3.626a.368.368,0,0,0-.156.271c0,.173-.272.617-.551.641h-.716c-.139-.041-.608-.271-.641-.518a.592.592,0,0,1,.424-.722l.045-.01a1.958,1.958,0,0,0,.518-.115h.049a.9.9,0,0,1,.757-.083c.156.074.346.189.362.346a.206.206,0,0,1-.164.206Zm2.015,1.422c0,.206-.3.346-.419.378h0a1.075,1.075,0,0,1-.287.049.477.477,0,0,1-.173,0,.386.386,0,0,1-.247-.4,1.794,1.794,0,0,1,.049-.247.825.825,0,0,0,0-.131.321.321,0,0,1,.342-.3l.02,0a.386.386,0,0,1,.354.288c0,.041.1.074.156.082h.049a.272.272,0,0,1,.1.3Zm3.182-.732a1.126,1.126,0,0,1-.436.822,1.49,1.49,0,0,0-.181.123,1.438,1.438,0,0,1-.666.329.236.236,0,0,1-.124,0,.3.3,0,0,1-.123-.321s.057-.214.1-.427v-.124a.86.86,0,0,1,.222-.534,2.858,2.858,0,0,1,.222-.189,3.619,3.619,0,0,0,.3-.263h0a.517.517,0,0,1,.378-.206.272.272,0,0,1,.206.123,1.509,1.509,0,0,1,.025.683Zm2.845,2.039a.239.239,0,0,1-.214.124h0a.174.174,0,0,0-.14.066.817.817,0,0,1-.51.214.346.346,0,0,1-.2-.058h0a1.551,1.551,0,0,1-.395-.3c-.041-.057-.288-.477-.156-.724a.5.5,0,0,1,.645-.295.461.461,0,0,1,.055.024,1.474,1.474,0,0,0,.328.164h0a.7.7,0,0,1,.535.345.508.508,0,0,1-.025.461Zm2.327-1.373a2.717,2.717,0,0,1-.312.214l-.173.107a.526.526,0,0,1-.3.106.369.369,0,0,1-.312-.164.525.525,0,0,1-.057-.633.42.42,0,0,0-.091-.329v-.049a.37.37,0,0,1,.107-.411.873.873,0,0,1,.822.057h.05a1.051,1.051,0,0,1,.493.453.525.525,0,0,1-.3.666Zm3.091.641h-.148a.436.436,0,0,1-.345-.189.324.324,0,0,0-.222,0h-.1a.32.32,0,0,1-.279-.23c-.057-.222.172-.494.279-.576h0a.826.826,0,0,1,.477-.222h0a.452.452,0,0,1,.419.329h0a.68.68,0,0,0,.049.288c.049.107,0,.107,0,.148a.346.346,0,0,1-.131.47.3.3,0,0,1-.074.031Zm16.939-13.106a.2.2,0,0,0,.091.107.5.5,0,0,1,.246.461v.041a1.259,1.259,0,0,1-.123.346.655.655,0,0,1-.395.255h-.041a.371.371,0,0,1-.333-.4l0-.023a.827.827,0,0,0,0-.287h0a.534.534,0,0,1,.115-.444c.107-.107.206-.157.287-.132A.163.163,0,0,1,413.441,753.116Zm-.214,5.756a.163.163,0,0,1-.115.041.278.278,0,0,1-.132,0l-.214-.147h-.057a.612.612,0,0,1-.264-.255,1.522,1.522,0,0,1-.049-.148v-.091a.263.263,0,0,1,.139-.345h.058a.306.306,0,0,1,.3-.049.694.694,0,0,1,.354.436.755.755,0,0,0,0,.115C413.31,758.576,413.359,758.8,413.227,758.872Zm-.888-8.223.041-.139c.074-.239.148-.477.321-.5a.247.247,0,0,1,.222.141l.131.3a.815.815,0,0,0,.041.082.737.737,0,0,1,.107.4l-.049.2a2.021,2.021,0,0,1-.049.271.353.353,0,0,1-.131.288.234.234,0,0,1-.1,0,.183.183,0,0,1-.091,0c-.148-.057-.313-.337-.346-.395A.824.824,0,0,1,412.339,750.649Zm-.477,5.073c.074-.107.156-.164.239-.148a.172.172,0,0,1,.139.1h0a.384.384,0,0,1,.279.354h0a.8.8,0,0,1-.049.279c0,.041-.164.263-.32.263h0a.329.329,0,0,1-.329-.329h0a.688.688,0,0,0,0-.189.427.427,0,0,1,.041-.362Zm-1.43-4.785.148-.214.106-.132a.355.355,0,0,1,.485-.124h0l.115.058c.123.066.287.139.312.3h0a1.1,1.1,0,0,1-.23.822l-.148.165c-.247.287-.436.485-.609.485h-.066c-.1,0-.157-.116-.181-.263v-.567a.821.821,0,0,1,.066-.567Zm.707,4.785a.625.625,0,0,0-.074.132c-.123.222-.247.452-.428.452h0c-.066,0-.148,0-.214-.181s0-.156-.074-.3v-.082a.645.645,0,0,1,0-.436l.074-.172a.138.138,0,0,1,.049-.1.3.3,0,0,1,.378-.189h.082a.354.354,0,0,1,.3.181.823.823,0,0,1-.091.667Zm-1.012-1.785c-.074.1-.369.4-.6.4h-.058a.55.55,0,0,1-.5-.6c0-.011,0-.023,0-.034a1.452,1.452,0,0,0,.058-.477v-.066a.733.733,0,0,1,.14-.6.394.394,0,0,1,.469-.172.629.629,0,0,1,.337.3l.082.1c.14.156.312.345.263.534v.083A2.184,2.184,0,0,1,410.127,753.938Zm.51,4.671H410.6a.419.419,0,0,1-.4-.441.245.245,0,0,1,0-.029,1.2,1.2,0,0,0,0-.3.641.641,0,0,1,.09-.543c.116-.132.222-.2.329-.172a.213.213,0,0,1,.148.132.122.122,0,0,0,.091.09c.123.058.353.312.321.51v.049a1.427,1.427,0,0,1-.107.387S410.843,758.609,410.637,758.609Zm.929,2.985a.536.536,0,0,1-.423-.627.466.466,0,0,1,.012-.048,2.108,2.108,0,0,0,.106-.469v-.057a.74.74,0,0,1,.206-.576.377.377,0,0,1,.476-.115.615.615,0,0,1,.3.329l.074.107c.115.164.263.37.189.559v.074a1.665,1.665,0,0,1-.238.5,1.059,1.059,0,0,1-.6.329Zm1.217,2.656a.754.754,0,0,1-.395-.263c-.039-.065-.074-.13-.107-.2a2.5,2.5,0,0,0-.164-.28.422.422,0,0,1-.107-.337.234.234,0,0,1,.132-.147,1.267,1.267,0,0,1,.584.049.907.907,0,0,1,.567.469h0l.066.156c.14.313.23.542.115.674a.2.2,0,0,1-.164.074h-.115l-.321-.148Zm1.5,3.116a.827.827,0,0,1-.559.3H413.4c-.2,0-.37,0-.427-.141s0-.164.057-.263l.239-.213a.491.491,0,0,0,.066-.066.741.741,0,0,1,.353-.231h.2a1.327,1.327,0,0,0,.279-.041.357.357,0,0,1,.313,0,.2.2,0,0,1,.066.181,1.013,1.013,0,0,1-.263.469Zm.148-4.679a.356.356,0,0,1-.264-.115,1.1,1.1,0,0,0-.221-.214h0a.582.582,0,0,1-.312-.378c0-.165,0-.271.066-.329a.148.148,0,0,1,.164,0,.194.194,0,0,0,.148,0,.543.543,0,0,1,.559.066v.041a.959.959,0,0,1,.222.313c0,.082.082.42-.049.543A.487.487,0,0,1,414.428,762.687Zm.386,2.911a.594.594,0,0,1,.461-.131h.107c.181,0,.37.066.411.206a.181.181,0,0,1-.082.2l-.181.123h-.058a.449.449,0,0,1-.271.115h-.222a.23.23,0,0,1-.23-.23v-.058a.282.282,0,0,1,.066-.222Zm1.71,3.536-.419.148-.115.049a1.142,1.142,0,0,1-.427.115h-.132l-.255-.082-.156-.049a.354.354,0,0,1-.264-.425v-.127c0-.041.041-.32.189-.394a1.092,1.092,0,0,1,.88-.058l.205.09c.387.164.658.288.667.494S416.656,769.068,416.525,769.134Zm2.8,2.467a1.328,1.328,0,0,0-.312.066h-.041a.755.755,0,0,1-.271.066.433.433,0,0,1-.164,0,.3.3,0,0,1-.239-.287.486.486,0,0,1,.124-.3.291.291,0,0,0,.049-.074c.066-.115.164-.279.312-.3h.049a1.3,1.3,0,0,1,.4,0c.083,0,.4.172.419.354a.4.4,0,0,1-.286.492l-.043.009Zm2.36-.674a1.214,1.214,0,0,1-.082.3s-.189.247-.345.247h0a.329.329,0,0,1-.314-.344v-.01a1.258,1.258,0,0,0,0-.239.5.5,0,0,1,.074-.411c.083-.107.173-.148.247-.132a.15.15,0,0,1,.124.1.09.09,0,0,0,.057.066.463.463,0,0,1,.255.394Zm2.1,1.7a.361.361,0,0,1-.312.205.374.374,0,0,1-.156-.041.741.741,0,0,0-.231-.107h0a.442.442,0,0,1-.312-.2.246.246,0,0,1,0-.32.381.381,0,0,1,.23-.141h.058a.41.41,0,0,1,.362-.041h.041a.991.991,0,0,1,.256.2c.016.074.148.329.066.469Z" transform="translate(-324.038 -702.308)" fill="#82670e"/>
</svg>
