<svg version="1.2" xmlns="http://www.w3.org/2000/svg" viewBox="0 0 218 78" width="218" height="78"><style>.a{fill:#fff}</style><filter id="f0"><feFlood flood-color="#82670e" flood-opacity="1" /><feBlend mode="normal" in2="SourceGraphic"/><feComposite in2="SourceAlpha" operator="in" /></filter><g filter="url(#f0)"><path class="a" d="m215.4 46.4v-27.3q0-0.5 0.1-0.9 0.1-0.4 0.4-0.8 0.3-0.4 0.7-0.6 0.3-0.3 0.8-0.4v-0.2h-7v0.2q0.4 0.1 0.8 0.4 0.4 0.2 0.6 0.6 0.3 0.4 0.4 0.8 0.2 0.4 0.1 0.9v27.3q0.1 0.4-0.1 0.9-0.1 0.4-0.4 0.8-0.2 0.4-0.6 0.6-0.4 0.3-0.8 0.4v0.1h7v-0.1q-0.5-0.1-0.8-0.4-0.4-0.2-0.7-0.6-0.2-0.4-0.4-0.8-0.1-0.5-0.1-0.9zm-125.4 0.9c-0.4-0.8-14.8-27.1-14.8-27.1l-2.4-4.2c0 0-14.8 28.8-15.7 30.6q-0.3 0.5-0.6 0.9-0.4 0.5-0.8 0.8-0.5 0.3-1 0.5-0.6 0.2-1.1 0.3v0.1h6.2v-0.1c-1.3-0.3-2.1-0.8-2.1-1.7q0-0.2 0.1-0.4 0-0.1 0-0.3 0.1-0.2 0.1-0.3 0.1-0.2 0.2-0.4l2.4-4.7h22.6c1.7 3.2 3 5.5 3.2 5.9q0.1 0.1 0.1 0.2 0 0.1 0.1 0.2 0 0.1 0 0.2 0.1 0.1 0.1 0.2c0 0.8-0.7 1-1.7 1.1v0.1h7.9v-0.1q-0.4-0.1-0.8-0.2-0.4-0.1-0.8-0.4-0.3-0.2-0.6-0.5-0.3-0.3-0.6-0.7zm-17.2-31.3zm-12.1 25l10.7-21 11.5 21zm43.8 7.7h-1.7q-0.6 0.1-1.1-0.1-0.5-0.2-0.8-0.5-0.4-0.4-0.6-0.9-0.2-0.5-0.1-1v-27.1q0-0.5 0.1-0.9 0.1-0.4 0.4-0.8 0.2-0.4 0.6-0.6 0.4-0.3 0.8-0.4v-0.2h-7v0.2q0.5 0.1 0.8 0.4 0.4 0.2 0.7 0.6 0.2 0.4 0.4 0.8 0.1 0.4 0 0.9v27.3q0.1 0.4 0 0.9-0.2 0.4-0.4 0.8-0.3 0.4-0.7 0.6-0.3 0.3-0.8 0.4v0.1h34.4l2.1-3.6h-0.1c-4.9 1.9-19.4 3.1-27 3.1zm-53.1-32.3v-0.2h-4.6l-19 26.7q-0.1 0.2-0.2 0.4-0.2 0.1-0.3 0.2-0.2 0.2-0.4 0.2-0.2 0.1-0.4 0.1-0.3 0-0.5-0.1-0.2-0.1-0.4-0.2-0.1-0.1-0.3-0.3-0.1-0.1-0.3-0.3l-19.2-26.7h-5.8v0.2q0.9 0.4 1.5 1.1 0.7 0.6 1.1 1.4 0.5 0.8 0.7 1.7 0.2 0.9 0.1 1.8v24.2c0 1.4-1.2 2.1-2.6 2.5v0.1h5.9v-0.1c-1.4-0.4-2.6-1.1-2.6-2.5v-27.5l20.9 29 4.9-6.9 15.9-22.4v27.6q0.1 0.4-0.1 0.9-0.1 0.4-0.4 0.8-0.2 0.4-0.6 0.6-0.4 0.3-0.8 0.4v0.1h7v-0.1q-0.5-0.1-0.8-0.4-0.4-0.2-0.7-0.6-0.3-0.4-0.4-0.8-0.1-0.5-0.1-0.9v-25.2c0-2.5 0.5-3.7 2.5-4.8zm152.4 30.9c-0.4-0.8-14.8-27.1-14.8-27.1l-2.4-4.2c0 0-14.8 28.8-15.7 30.6q-0.3 0.5-0.6 0.9-0.4 0.5-0.9 0.8-0.4 0.3-1 0.4-0.5 0.2-1.1 0.2-0.5 0-0.9-0.1-0.5-0.1-0.9-0.3-0.4-0.2-0.8-0.5-0.4-0.2-0.7-0.5c-0.9-0.8-23.4-21.1-23.4-21.1 0.2-0.1 14.6-6.1 21.5-8.8q0.5-0.2 1-0.4 0.6-0.2 1.1-0.4 0.6-0.1 1.2-0.2 0.5-0.1 1.1-0.2h0.2v-0.2h-6.9v0.2c0.7 0 1.2 0.2 1.3 0.5 0 0.4-0.8 0.7-2.1 1.2l-19.2 7.9h-2.8v-6.9q-0.1-0.5 0.1-0.9 0.1-0.4 0.3-0.8 0.3-0.4 0.7-0.6 0.4-0.3 0.8-0.4v-0.2h-7v0.2q0.5 0.1 0.8 0.4 0.4 0.2 0.7 0.6 0.2 0.4 0.4 0.8 0.1 0.4 0 0.9v27.3q0.1 0.4 0 0.9-0.2 0.4-0.4 0.8-0.3 0.4-0.7 0.6-0.3 0.3-0.8 0.4v0.1h7v-0.1q-0.4-0.1-0.8-0.4-0.4-0.2-0.7-0.6-0.2-0.4-0.3-0.8-0.2-0.5-0.1-0.9v-19.7h2.8c0 0 18.8 20.1 19.6 20.9q0.1 0.1 0.1 0.2 0.1 0 0.2 0.1 0 0.1 0.1 0.3 0 0.1 0 0.2c0 0.4-0.6 0.6-1.5 0.7v0.2h15.3v-0.2c-1.3-0.3-2.1-0.8-2.1-1.7q0-0.1 0-0.3 0.1-0.2 0.1-0.4 0.1-0.2 0.1-0.3 0.1-0.2 0.2-0.3c0.1-0.2 1-2 2.4-4.8h22.6l3.2 5.9q0.1 0.1 0.1 0.2 0 0.1 0.1 0.2 0 0.1 0 0.2 0.1 0.1 0.1 0.2c0 0.8-0.7 1-1.7 1.1v0.2h7.9v-0.2q-0.4 0-0.8-0.2-0.4-0.1-0.8-0.4-0.4-0.2-0.7-0.5-0.2-0.3-0.5-0.7zm-29.3-6.3l10.7-21 11.5 21zm12.1-25zm-85.4-15.9q0.2 0 0.3 0 0.2 0 0.3 0 0.2 0 0.3 0 0.1 0 0.3-0.1c0.1 0 0 0.9 0.1 1.6h-0.4l-0.1-0.4c-0.1-0.5-0.3-0.7-0.6-0.7h-1c0 0 0 1 0 2.3 0 1.2 0 1.9 0 1.9 0 0.2 0.1 0.3 0.4 0.3l0.3 0.1v0.3h-1.1-1.2v-0.3l0.4-0.1c0.2 0 0.3-0.1 0.3-0.3 0 0 0-0.7 0-1.9 0-1.3 0-2.3 0-2.3h-0.9c-0.4 0-0.5 0.2-0.7 0.7l-0.1 0.4h-0.3c0-0.7 0-1.6 0-1.6q0.2 0 0.3 0.1 0.2 0 0.3 0 0.1 0 0.3 0 0.1 0 0.3 0h1.3zm9 2.4q0-1.7 0-1.7c0-0.2-0.1-0.3-0.4-0.4h-0.4v-0.3h1.2 1.2v0.3h-0.4c-0.3 0.1-0.3 0.2-0.3 0.4 0 0-0.1 0.7-0.1 1.9 0 1.2 0.1 2 0.1 2 0 0.2 0 0.3 0.3 0.3l0.4 0.1v0.3h-1.2-1.2v-0.3l0.4-0.1c0.3 0 0.4-0.1 0.4-0.3 0 0 0-0.7 0-1.9h-2.7c0 1.2 0 1.9 0 1.9 0 0.2 0.1 0.3 0.4 0.3l0.3 0.1v0.3h-1.2-1.1v-0.3l0.3-0.1c0.3 0 0.4-0.1 0.4-0.3 0 0 0-0.8 0-2 0-1.2 0-1.9 0-1.9 0-0.2-0.1-0.3-0.4-0.4h-0.3v-0.3h1.1 1.2v0.3h-0.3c-0.3 0.1-0.4 0.2-0.4 0.4q0 0 0 1.7zm7.8 0c0.2 0 0.3-0.1 0.4-0.4l0.1-0.4h0.3l-0.1 1 0.1 1h-0.3l-0.1-0.4c-0.1-0.3-0.2-0.4-0.4-0.4-0.4 0-1 0-1 0v1.7q0 0.4 0.6 0.4h0.8q0.2 0 0.3 0 0.2 0 0.3-0.1 0.1-0.1 0.2-0.2 0.1-0.1 0.2-0.3l0.3-0.6h0.3c0 0.1-0.2 1.3-0.2 1.6 0 0-1.1 0-1.5 0h-1.7-1.2v-0.3h0.4c0.3-0.1 0.4-0.2 0.4-0.4 0 0 0-0.7 0-1.9 0-1.3 0-2 0-2-0.1-0.2-0.1-0.3-0.4-0.3l-0.4-0.1v-0.3h1.2 1.9c0.4 0 1.2-0.1 1.2-0.1 0 0-0.1 0.5-0.2 1.6h-0.2l-0.1-0.4c-0.2-0.5-0.3-0.7-0.6-0.7h-1.5c-0.1 0-0.1 0-0.1 0.1v1.9c0 0 0.5 0 1 0z"/><path class="a" d="m48.7 75.6q0.2 0.1 0.4 0 0.1-0.1 0.3-0.2 0.1-0.1 0.2-0.3 0.1-0.2 0.1-0.4 0 0 0 0c0-1.4-2.7-1-2.7-2.8 0-0.7 0.7-1.4 1.8-1.4q0.2 0 0.4 0 0.2 0.1 0.4 0.1 0.2 0 0.4 0.1 0.2 0 0.3 0.1c0.2 0 0 0.6-0.1 1.3h-0.3c0 0-0.1-0.5-0.3-0.9 0-0.2-0.2-0.3-0.8-0.3-0.6 0-1 0.3-1 0.8 0 1.2 2.7 1 2.7 2.7q0 0.3-0.2 0.6-0.1 0.4-0.4 0.6-0.3 0.2-0.6 0.3-0.3 0.1-0.7 0.1-0.2 0-0.4 0-0.2-0.1-0.4-0.1-0.2 0-0.4-0.1-0.2 0-0.4-0.1 0-0.2 0-0.4 0-0.2 0-0.4-0.1-0.2-0.1-0.3 0-0.2 0-0.4l0.3-0.1q0.1 0.2 0.1 0.3 0.1 0.1 0.1 0.2 0 0.1 0.1 0.3 0 0.1 0.1 0.2 0.1 0.1 0.2 0.2 0.1 0.1 0.3 0.2 0.1 0.1 0.3 0.1 0.1 0 0.3 0zm7-1.5q0 0.3 0.1 0.6 0.1 0.2 0.3 0.5 0.2 0.2 0.5 0.3 0.3 0.1 0.6 0c1.3 0 1.6-0.8 1.6-1.7v-2.5c0-0.3-0.1-0.3-0.3-0.3l-0.4-0.1v-0.3h0.9 1v0.3l-0.4 0.1c-0.3 0-0.4 0.1-0.4 0.3v2.6q0.1 0.4-0.1 0.8-0.1 0.5-0.4 0.8-0.4 0.3-0.8 0.4-0.4 0.1-0.8 0.1c-1.5 0-2.2-0.7-2.2-1.9v-2.7c0-0.3-0.1-0.4-0.4-0.4l-0.4-0.1v-0.3l1.2 0.1 1.2-0.1v0.3l-0.4 0.1c-0.3 0-0.4 0.1-0.4 0.4zm8.9 1.8h-1.1v-0.3l0.4-0.1c0.2 0 0.3-0.1 0.3-0.3 0 0 0.1-0.7 0.1-2 0-1.2-0.1-1.9-0.1-1.9 0-0.2-0.1-0.3-0.3-0.3l-0.4-0.1v-0.3h1.2 1.2v0.3l-0.4 0.1c-0.3 0-0.4 0.1-0.4 0.3 0 0 0 0.7 0 1.9 0 0.8 0 1.6 0 1.9 0 0.3 0.2 0.4 0.5 0.4h0.8q0.2 0 0.3 0 0.2-0.1 0.3-0.1 0.1-0.1 0.2-0.2 0.1-0.2 0.2-0.3l0.3-0.6h0.3c0 0.1-0.2 1.3-0.2 1.6 0 0-1.1 0-1.5 0zm9.8-5.3q0.2 0 0.3 0 0.1 0 0.3 0 0.1 0 0.3 0 0.1 0 0.3-0.1c0 0 0 0.9 0 1.6h-0.3l-0.1-0.4c-0.2-0.5-0.3-0.7-0.7-0.7h-0.9c0 0-0.1 1-0.1 2.3 0 1.2 0.1 1.9 0.1 1.9 0 0.2 0 0.3 0.3 0.4h0.4v0.3h-1.2-1.2v-0.3h0.4c0.3-0.1 0.4-0.2 0.4-0.4 0 0 0-0.7 0-1.9 0-1.3 0-2.3 0-2.3h-1c-0.3 0-0.5 0.2-0.6 0.7l-0.1 0.4h-0.4c0.1-0.7 0.1-1.6 0.1-1.6q0.2 0.1 0.3 0.1 0.1 0 0.3 0 0.1 0 0.3 0 0.1 0 0.3 0c0 0 2.5 0 2.5 0zm5.6 3.1c-0.3 0.9-0.5 1.5-0.5 1.5-0.1 0.2 0 0.3 0.3 0.3l0.4 0.1v0.3h-1.1-0.9v-0.3l0.4-0.1q0.1 0 0.2 0 0 0 0.1-0.1 0 0 0.1-0.1 0-0.1 0-0.1c0.9-2.1 1.8-4.6 1.8-4.6l0.6-0.2c0 0 0.9 2.2 1.9 4.8 0.1 0.2 0.2 0.3 0.4 0.3l0.4 0.1v0.3l-1.2-0.1-1.3 0.1v-0.3l0.4-0.1c0.3 0 0.4-0.1 0.3-0.3l-0.5-1.5zm0.9-2.5l-0.8 2.1h1.6zm6.8-0.2l-0.4-0.1v-0.3l1 0.1 0.9-0.1q0 0.1 0 0.2 0.1 0 0.1 0.1 0 0.1 0.1 0.1 0 0.1 0.1 0.2l2.6 3.5c0 0-0.1-1.9-0.1-3.4 0-0.2-0.1-0.3-0.4-0.3l-0.4-0.1v-0.3l1 0.1 1-0.1v0.3l-0.4 0.1c-0.3 0-0.4 0.1-0.4 0.3 0 0 0 4 0 4.6h-0.5c-2.1-2.9-3.5-4.7-3.5-4.7v4c0 0.2 0.1 0.3 0.4 0.4h0.4v0.3h-1-1v-0.3h0.4c0.3-0.1 0.4-0.2 0.4-0.4 0-0.5 0.1-3.4 0.1-3.9 0-0.2-0.1-0.3-0.4-0.3zm10.4 2.7c-0.4 1-0.5 1.5-0.5 1.5-0.1 0.2 0 0.3 0.3 0.4h0.4v0.3h-1.1-0.9v-0.3h0.4q0.1-0.1 0.1-0.1 0.1 0 0.2-0.1 0 0 0-0.1 0.1 0 0.1-0.1c0.8-2.1 1.8-4.6 1.8-4.6l0.6-0.2c0 0 0.8 2.2 1.9 4.8 0.1 0.2 0.1 0.3 0.4 0.3l0.3 0.1v0.3h-1.2-1.2v-0.3l0.4-0.1c0.3 0 0.4-0.1 0.3-0.3l-0.5-1.5zm0.9-2.5l-0.8 2.2h1.6zm9.6-0.6q0.1 0 0.2 0 0.2 0 0.3 0 0.2-0.1 0.3-0.1 0.2 0 0.3 0c0.1 0 0 0.9 0.1 1.5h-0.3l-0.1-0.3c-0.2-0.6-0.4-0.7-0.7-0.7h-1c0 0 0 1 0 2.2 0 1.2 0 1.9 0 1.9 0 0.3 0.1 0.3 0.4 0.4l0.4 0.1v0.3l-1.2-0.1-1.2 0.1v-0.3l0.4-0.1c0.2-0.1 0.3-0.1 0.3-0.4 0 0 0.1-0.7 0.1-1.9 0-1.2-0.1-2.2-0.1-2.2h-0.9c-0.4 0-0.5 0.1-0.7 0.7l-0.1 0.3h-0.3c0-0.6 0.1-1.5 0.1-1.5q0.1 0 0.2 0 0.2 0 0.3 0.1 0.2 0 0.3 0 0.2 0 0.3 0c0 0 2.6 0 2.6 0zm7.2 2.3c0.3 0 0.4-0.1 0.4-0.3l0.1-0.4h0.3v0.9 1h-0.3l-0.1-0.4c0-0.3-0.1-0.4-0.4-0.4-0.4 0-0.9 0-0.9 0v1.7q0 0.5 0.5 0.5h0.9q0.1 0 0.3-0.1 0.1 0 0.3-0.1 0.1-0.1 0.2-0.2 0.1-0.1 0.1-0.2l0.4-0.7h0.2c0 0.2-0.2 1.4-0.2 1.7 0 0-1-0.1-1.5-0.1h-1.7l-1.2 0.1v-0.3l0.4-0.1c0.3-0.1 0.4-0.1 0.4-0.4 0 0 0-0.7 0-1.9 0-1.2 0-1.9 0-1.9 0-0.3-0.1-0.3-0.4-0.4l-0.4-0.1v-0.2h1.2 2c0.4 0 1.1-0.1 1.1-0.1 0 0 0 0.5-0.1 1.5h-0.3l-0.1-0.3c-0.1-0.5-0.3-0.7-0.6-0.7h-1.4c-0.1 0-0.2 0-0.2 0.1v1.9c0 0 0.6 0 1-0.1zm9.8 0.4c0 1.1-0.8 2.6-2.1 2.6-0.6 0-1.1-0.4-1.1-1.2 0-1.1 0.9-2.6 2.2-2.6q0.2 0 0.4 0.1 0.2 0.1 0.3 0.2 0.2 0.2 0.3 0.4 0 0.2 0 0.4 0 0.1 0 0.1zm-1.9 2.3c0.7 0 1.2-1.5 1.2-2.4q0-0.8-0.5-0.8c-0.7 0-1.3 1.5-1.3 2.4 0 0.3 0.1 0.8 0.6 0.8zm4.1-3l0.1-0.3h0.7c0.5-1.6 1.2-2.3 2.1-2.3 0.5 0 0.7 0.2 0.7 0.5 0 0.2-0.1 0.5-0.5 0.5q-0.1 0-0.1 0 0 0 0 0 0 0 0 0-0.1 0-0.1 0c0-0.4-0.1-0.6-0.3-0.6-0.5 0-0.9 1.4-1.1 1.9h0.8l-0.1 0.4-0.7-0.1-1 2.9c-0.5 1.6-1 2.2-1.8 2.2-0.4 0-0.6-0.2-0.6-0.5q0 0 0.1-0.1 0-0.1 0-0.2 0.1 0 0.2-0.1 0.1 0 0.2 0 0 0 0.1 0 0 0 0 0.1 0.1 0 0.1 0 0 0.1 0 0.1v0.3c0 0.1 0 0.1 0.1 0.1 0.3 0 0.5-0.3 0.8-1.3l1-3.5zm13.6 0.6q0 0.5-0.1 1-0.2 0.5-0.6 0.9-0.3 0.3-0.8 0.6-0.5 0.2-1 0.2 0 0-0.1 0 0 0 0 0-0.1 0-0.1 0 0 0-0.1 0-0.5 0-1-0.1-0.4-0.2-0.8-0.6-0.4-0.3-0.6-0.8-0.2-0.5-0.2-1 0-0.1 0-0.2 0-0.5 0.1-1 0.2-0.5 0.6-0.9 0.3-0.4 0.8-0.6 0.5-0.2 1-0.2 0.1 0 0.3 0 0.5 0 1 0.1 0.4 0.2 0.8 0.6 0.4 0.3 0.6 0.8 0.2 0.5 0.2 1 0 0.1 0 0.2zm-0.9 0.1c0-1.7-0.9-2.5-1.8-2.5-1.4 0-1.8 1.3-1.8 2.3 0 1.7 0.9 2.5 1.8 2.5 1.4-0.1 1.8-1.3 1.8-2.3zm10.1-2.2c-0.3 0.8-1.6 3.9-1.9 4.7h-0.5c-0.5-1.3-1.1-2.9-2-4.7v4c0 0.2 0.1 0.3 0.4 0.4h0.4v0.3h-1-0.9v-0.3h0.4c0.2-0.1 0.3-0.2 0.3-0.4 0-0.2 0.1-3 0.1-3.7 0-0.4 0-0.5-0.4-0.5l-0.4-0.1v-0.3l1.1 0.1 0.8-0.1c0.2 0.4 1.4 3.5 1.7 4.3 0.8-1.9 1.6-4 1.6-4v-0.3l0.8 0.1 1.1-0.1v0.3l-0.4 0.1c-0.3 0-0.4 0.1-0.4 0.3 0.1 2.3 0.1 3.9 0.1 3.9 0 0.2 0.1 0.3 0.4 0.4h0.4v0.3h-1.3-1.1v-0.3h0.4c0.2-0.1 0.3-0.2 0.3-0.4 0-2.5 0-4 0-4zm6.6 2.5c-0.3 1-0.5 1.5-0.5 1.5-0.1 0.2 0 0.3 0.3 0.4h0.4v0.3h-1.1-0.9v-0.3h0.4q0.1 0 0.1-0.1 0.1 0 0.2-0.1 0 0 0.1-0.1 0 0 0-0.1c0.8-2.1 1.8-4.6 1.8-4.6l0.6-0.1c0 0 0.9 2.1 1.9 4.7 0.1 0.2 0.2 0.3 0.4 0.4h0.4v0.3h-1.3-1.2v-0.3h0.4c0.3-0.1 0.4-0.2 0.3-0.4-0.1-0.4-0.5-1.5-0.5-1.5zm0.9-2.5l-0.8 2.2h1.6zm6.8-0.3l-0.4-0.1v-0.3l1 0.1 0.8-0.1q0.1 0.1 0.1 0.2 0 0.1 0.1 0.1 0 0.1 0.1 0.2 0 0 0.1 0.1l2.6 3.5c0 0-0.1-1.9-0.1-3.3 0-0.3-0.1-0.3-0.4-0.4l-0.4-0.1v-0.3l1 0.1 1-0.1v0.3l-0.4 0.1c-0.3 0.1-0.4 0.1-0.4 0.4 0 0 0 3.9 0 4.5h-0.5c-2.1-2.9-3.5-4.6-3.5-4.6v3.9c0 0.2 0.1 0.3 0.4 0.4l0.4 0.1v0.3l-1-0.1-1 0.1v-0.3l0.4-0.1c0.3-0.1 0.4-0.1 0.4-0.4 0-0.5 0.1-3.3 0.1-3.8 0-0.3-0.1-0.3-0.4-0.4z"/></g></svg>