<svg xmlns="http://www.w3.org/2000/svg" width="31.175" height="46.914" viewBox="0 0 31.175 46.914">
  <g id="Group_7138" data-name="Group 7138" transform="translate(-1582.852 -2289.809)">
    <path id="Path_79" data-name="Path 79" d="M389.483,9.778a4.986,4.986,0,1,0-4.975-5v.011a4.975,4.975,0,0,0,4.963,4.986Zm0-8.62c1.976,0,3.032,1.136,3.032,2.4S392.141,5.2,391.1,5.2a1.522,1.522,0,0,1-1.54-1.5,1.577,1.577,0,0,1,.007-.166c0-.9.738-.511,1.136-.761s-.148-.852-1.136-.852c-1.261,0-2.442,1.567-2.442,3.055a4.429,4.429,0,0,0,.852,2.9l-.114.148a2.885,2.885,0,0,1-2.112-2.839,3.861,3.861,0,0,1,3.7-4.019Zm10.755,16.718a4.986,4.986,0,1,0,4.986,4.986V22.85a4.975,4.975,0,0,0-4.975-4.974Zm2.215,4.974c-.659.591-1.136.375-1.624-.091a1.4,1.4,0,0,1-.579-.9c0-.3,1.022-.568,1.022-.943s-.466-.727-1.226-.727a2.487,2.487,0,0,0-2.389,2.582c0,.025,0,.051,0,.076,0,1.647.568,1.965,1.567,2.817A4.044,4.044,0,0,0,401.09,26.8v.17a2.68,2.68,0,0,1-2.044-.25,5.293,5.293,0,0,1-2.09-2.362,2.624,2.624,0,0,1-.67-1.511,4.157,4.157,0,0,1,3.782-3.839c1.533,0,3.225,1.238,3.225,2.022A2.4,2.4,0,0,1,402.453,22.85Zm-7.28,4.588a4.895,4.895,0,1,0,4.895,4.895h0A4.895,4.895,0,0,0,395.173,27.439Zm1.715,5.213c-.659,0-1.011-.818-1.295-1.545s-.556-1.136-.909-1.136a3.293,3.293,0,0,0-2.453,2.658,4.849,4.849,0,0,0,1.749,3.123l-.068.159s-2.714-1-2.714-3.248a3.044,3.044,0,0,1,1.863-2.987c.534-.273,1.249-.352,1.669-.545s.466-.432.909-.432c.647,0,2.521,1.465,2.521,2.078S397.547,32.652,396.888,32.652ZM384.021,18.1a4.736,4.736,0,1,0-4.725-4.747v.011A4.736,4.736,0,0,0,384.021,18.1Zm-.25-8.188c2.964,0,3.646,1.919,3.646,2.646s-.216,1.261-.647,1.261a1.8,1.8,0,0,1-1.545-1.511,1.363,1.363,0,0,0-1.51-1.136,2.169,2.169,0,0,0-1.863,2.271,3.089,3.089,0,0,0,1.136,2.771l-.25.318s-2.271-1.215-2.271-3.089a3.2,3.2,0,0,1,3.3-3.532Zm.25,13.367a4.986,4.986,0,1,0-5.042,4.929h.068A4.974,4.974,0,0,0,384.021,23.282Zm-2.6.2a1.465,1.465,0,0,1-1.465-.8c-.25-.534-.125-.829-.227-1.136s-.625-.545-1.317-.545a2.067,2.067,0,0,0-2.078,2.056v.011a5.917,5.917,0,0,0,1.829,3.907l-.023.091a3.589,3.589,0,0,1-2.851-3.566,3.475,3.475,0,0,1,3.759-3.623c1.919,0,3.055.988,3.055,2.465C382.1,22.941,381.851,23.486,381.42,23.486Zm3.373-.409a4.838,4.838,0,1,0,4.838-4.974,4.906,4.906,0,0,0-4.838,4.973Zm7.723-1.931c0,.977-.715,2.135-1.715,2.135a1.374,1.374,0,0,1-1.363-1.363c0-.75,1.306-.556,1.306-1.193,0-.3-.216-.534-.727-.534a2.839,2.839,0,0,0-2.4,3.089c0,1.67.647,2.51,2.4,3.316v.136a2.932,2.932,0,0,1-.795.125,3.305,3.305,0,0,1-2.851-3.5,3.884,3.884,0,0,1,3.589-4.032c1.136,0,2.555.931,2.555,1.817ZM389.54,36.933a4.895,4.895,0,1,0,4.757,5.029q0-.061,0-.123a4.827,4.827,0,0,0-4.746-4.906Zm2.135,3.771a13.406,13.406,0,0,1-1.136,1.136.511.511,0,0,1-.693.1c-.193-.125-.443-.17-.443-.795s.7-.909.7-1.4-.352-.488-.772-.488a2.555,2.555,0,0,0-2.422,2.682q0,.022,0,.043a4.3,4.3,0,0,0,1.624,3.407l-.1.159s-2.544-1.5-2.544-3.8a3.407,3.407,0,0,1,3.279-3.531h.049a3.862,3.862,0,0,1,2.271.84C392.289,39.455,392.232,39.886,391.675,40.7Zm-2.7-7.95a4.8,4.8,0,0,0-4.688-4.918h0a4.94,4.94,0,0,0,0,9.869,4.816,4.816,0,0,0,4.691-4.937S388.973,32.759,388.972,32.754Zm-1.6.284c0-.284-.136-.613-.488-.613a1.134,1.134,0,0,0-.488.148.92.92,0,0,1-.443.136.841.841,0,0,1-.6-.307.727.727,0,0,0-.477-.227.477.477,0,0,0-.477.579h-.114a.545.545,0,0,1-.159-.432c0-.784,1.363-1.056,1.363-1.454s-.341-.511-.806-.511a2.714,2.714,0,0,0-2.869,2.551c0,.043,0,.086,0,.13a3.248,3.248,0,0,0,.784,2.215l-.148.17a3.521,3.521,0,0,1-1.567-2.76,3.93,3.93,0,0,1,3.793-3.316,3.066,3.066,0,0,1,2.953,2.953,4.118,4.118,0,0,1-.091.75Zm2.646-19.852a4.963,4.963,0,0,0,9.915,0,4.963,4.963,0,0,0-9.915,0Zm4.952-3.566c1.874,0,2.941.988,2.941,2.271s-.6,2.044-1.715,2.044a1.068,1.068,0,0,1-1.134-1c0-.027,0-.055,0-.082a.829.829,0,0,1,.522-.659c.261-.1.522-.17.522-.42s-.67-.818-1.5-.818a2.271,2.271,0,0,0-2.185,2.355q0,.038,0,.075c0,1.317.5,2.271,2.215,3.214l-.136.25a3.271,3.271,0,0,1-3.405-3.131q0-.11,0-.22a3.566,3.566,0,0,1,3.873-3.884Z" transform="translate(1208.803 2290.002)" fill="#82670e"/>
  </g>
</svg>
